<svg xmlns="http://www.w3.org/2000/svg" version="1.1" xmlns:xlink="http://www.w3.org/1999/xlink" xmlns:svgjs="http://svgjs.dev/svgjs" width="2000" height="616" viewBox="0 0 2000 616"><g transform="matrix(1,0,0,1,-1.2121212121212466,-1.5841694605876455)"><svg viewBox="0 0 396 122" data-background-color="#ffffff" preserveAspectRatio="xMidYMid meet" height="616" width="2000" xmlns="http://www.w3.org/2000/svg" xmlns:xlink="http://www.w3.org/1999/xlink"><g id="tight-bounds" transform="matrix(1,0,0,1,0.2400000000000091,0.3137478477137847)"><svg viewBox="0 0 395.52 121.3725043045724" height="121.3725043045724" width="395.52"><g><svg viewBox="0 0 395.52 121.3725043045724" height="121.3725043045724" width="395.52"><g><svg viewBox="0 0 395.52 121.3725043045724" height="121.3725043045724" width="395.52"><g id="textblocktransform"><svg viewBox="0 0 395.52 121.3725043045724" height="121.3725043045724" width="395.52" id="textblock"><g><svg viewBox="0 0 395.52 121.3725043045724" height="121.3725043045724" width="395.52"><g transform="matrix(1,0,0,1,0,0)"><svg width="395.52" viewBox="3.52 -38.43 127.60000000000001 39.16" height="121.3725043045724" data-palette-color="#0e5ddd"><path d="M3.52-18.87L3.52-18.87Q3.52-23.22 4.75-26.81 5.98-30.4 8.24-32.98 10.5-35.57 13.68-37 16.87-38.43 20.75-38.43L20.75-38.43Q24.85-38.43 27.99-37 31.13-35.57 33.26-32.98 35.4-30.4 36.5-26.81 37.6-23.22 37.6-18.87L37.6-18.87Q37.6-15.16 36.65-11.93 35.69-8.69 33.86-6.1L33.86-6.1Q34.5-5.47 35.14-5.04 35.79-4.61 36.4-4.64L36.4-4.64Q36.69-4.64 36.99-4.75 37.28-4.86 37.6-4.99 37.92-5.13 38.26-5.24 38.6-5.35 39.01-5.35L39.01-5.35Q39.45-5.35 39.89-5.19 40.33-5.03 40.67-4.7 41.02-4.37 41.24-3.89 41.46-3.42 41.46-2.76L41.46-2.76Q41.46-1.88 41.08-1.23 40.7-0.59 40.06-0.15 39.43 0.29 38.56 0.5 37.7 0.71 36.74 0.71L36.74 0.71Q35.84 0.71 35.01 0.45 34.18 0.2 33.41-0.26 32.64-0.71 31.93-1.32 31.23-1.93 30.57-2.61L30.57-2.61Q28.52-1.03 26.01-0.16 23.51 0.71 20.56 0.71L20.56 0.71Q17.97 0.71 15.7 0.02 13.43-0.66 11.54-1.93 9.64-3.2 8.15-4.97 6.67-6.74 5.63-8.91 4.59-11.08 4.05-13.6 3.52-16.11 3.52-18.87ZM9.08-18.87L9.08-18.87Q9.08-17.04 9.42-15.25 9.77-13.45 10.44-11.83 11.11-10.21 12.1-8.83 13.09-7.45 14.37-6.43 15.65-5.42 17.22-4.85 18.8-4.27 20.63-4.27L20.63-4.27Q22.61-4.27 24.24-4.87 25.88-5.47 27.17-6.57L27.17-6.57Q26.61-7.23 26.05-7.79 25.49-8.35 24.94-8.76 24.39-9.18 23.83-9.42 23.27-9.67 22.68-9.67L22.68-9.67Q22.49-9.67 22.19-9.63 21.9-9.59 21.56-9.59L21.56-9.59Q21.22-9.59 20.63-9.68 20.04-9.77 19.47-10.05 18.9-10.33 18.48-10.84 18.07-11.35 18.07-12.23L18.07-12.23Q18.07-13.06 18.37-13.59 18.68-14.11 19.18-14.42 19.68-14.72 20.29-14.84 20.9-14.97 21.51-14.97L21.51-14.97Q22.9-14.97 24.02-14.67 25.15-14.38 26.15-13.81 27.15-13.23 28.11-12.39 29.08-11.55 30.15-10.47L30.15-10.47Q31.08-12.33 31.54-14.48 32.01-16.63 32.01-18.87L32.01-18.87Q32.01-21.8 31.32-24.43 30.64-27.05 29.24-29.05 27.83-31.05 25.7-32.23 23.56-33.4 20.63-33.4L20.63-33.4Q17.87-33.4 15.72-32.35 13.57-31.3 12.1-29.39 10.62-27.49 9.85-24.82 9.08-22.14 9.08-18.87ZM47.14-17.94L47.14-17.94Q47.12-21.83 47.15-25.74 47.19-29.66 47.19-33.96L47.19-33.96Q47.19-34.99 47.3-35.82 47.41-36.65 47.7-37.23 48-37.82 48.5-38.12 49-38.43 49.78-38.43L49.78-38.43Q51.56-38.43 52.29-37.39 53.02-36.35 53.02-34.57L53.02-34.57Q53.02-34.06 53-33.47 52.98-32.89 52.95-32.08 52.93-31.27 52.89-30.13 52.85-28.98 52.83-27.37 52.81-25.76 52.78-23.56 52.76-21.36 52.76-18.43L52.76-18.43Q52.76-16.67 52.87-14.95 52.98-13.23 53.31-11.68 53.64-10.13 54.25-8.81 54.86-7.5 55.82-6.53 56.78-5.57 58.19-5.03 59.59-4.49 61.52-4.49L61.52-4.49Q63.74-4.49 65.28-5.4 66.82-6.3 67.78-8.03 68.75-9.77 69.17-12.32 69.6-14.87 69.6-18.16L69.6-18.16Q69.6-24.1 69.5-28.2 69.41-32.3 69.36-34.13L69.36-34.13Q69.33-34.5 69.33-34.89 69.33-35.28 69.33-35.35L69.33-35.35Q69.33-37.08 70.1-37.76 70.87-38.43 72.17-38.43L72.17-38.43Q73-38.43 73.57-38.18 74.14-37.94 74.48-37.55 74.83-37.16 74.97-36.67 75.12-36.18 75.12-35.72L75.12-35.72Q75.12-34.91 75.06-34.07 75-33.23 75-32.32L75-32.32Q75-30.37 75.02-28.71 75.05-27.05 75.1-25.54L75.1-25.54Q75.1-23.78 75.14-21.98 75.19-20.19 75.19-18.12L75.19-18.12Q75.19-13.65 74.35-10.14 73.51-6.64 71.77-4.22 70.04-1.81 67.42-0.54 64.79 0.73 61.25 0.73L61.25 0.73Q59.47 0.73 57.74 0.4 56 0.07 54.44-0.73 52.88-1.54 51.55-2.91 50.22-4.27 49.24-6.35 48.26-8.42 47.7-11.28 47.14-14.14 47.14-17.94ZM86.47-1.95L86.47-1.95Q86.47-3.2 86.65-4.41 86.84-5.62 86.84-6.98L86.84-6.98Q86.84-13.21 86.73-19.51 86.62-25.81 86.62-32.45L86.62-32.45Q86.62-33.13 86.47-33.83 86.32-34.52 86.32-35.33L86.32-35.33Q86.32-35.96 86.49-36.52 86.66-37.08 87.08-37.51 87.5-37.94 88.23-38.18 88.96-38.43 90.06-38.43L90.06-38.43Q91.16-38.43 91.79-37.6 92.43-36.77 92.43-35.38L92.43-35.38Q92.43-34.96 92.35-34.56 92.28-34.16 92.21-33.72L92.21-33.72Q92.16-31.62 92.13-29.2 92.11-26.78 92.11-23.66L92.11-23.66Q92.11-20.87 92.13-17.97 92.16-15.06 92.21-12.38 92.26-9.69 92.34-7.36 92.43-5.03 92.55-3.34L92.55-3.34 92.55-3.37Q92.6-3 92.63-2.67 92.67-2.34 92.67-2L92.67-2Q92.67-1.42 92.54-0.92 92.4-0.42 92.08-0.05 91.77 0.32 91.21 0.51 90.64 0.71 89.81 0.71L89.81 0.71Q88.84 0.71 88.19 0.54 87.54 0.37 87.17 0.02 86.79-0.32 86.63-0.82 86.47-1.32 86.47-1.95ZM104.24-2.03L104.24-2.03Q104.24-2.81 104.35-3.6 104.46-4.39 104.48-5.25L104.48-5.25 104.39-33.33Q104.24-33.67 104.13-34.28 104.02-34.89 104.02-35.42L104.02-35.42Q104.02-35.91 104.19-36.4 104.36-36.89 104.69-37.27 105.02-37.65 105.51-37.88 106-38.11 106.63-38.11L106.63-38.11Q107.71-38.11 108.78-38 109.86-37.89 111.03-37.89L111.03-37.89Q111.96-37.89 112.9-38 113.84-38.11 114.89-38.11L114.89-38.11Q118.33-38.11 121.31-37.16 124.28-36.21 126.46-34.36 128.63-32.52 129.88-29.83 131.12-27.15 131.12-23.71L131.12-23.71Q131.12-20.43 130.29-18.01 129.46-15.58 128.03-13.84 126.6-12.11 124.69-11 122.77-9.89 120.56-9.25 118.35-8.62 115.98-8.37 113.62-8.13 111.3-8.13L111.3-8.13Q111.05-8.13 110.88-8.12 110.71-8.11 110.56-8.11 110.42-8.11 110.26-8.12 110.1-8.13 109.88-8.13L109.88-8.13Q109.88-7.28 109.88-6.77 109.88-6.27 109.89-5.96 109.9-5.64 109.9-5.42 109.9-5.2 109.9-4.91L109.9-4.91Q109.9-4.13 110.06-3.34 110.22-2.56 110.22-1.68L110.22-1.68Q110.22-1.03 109.93-0.57 109.64-0.12 109.2 0.16 108.76 0.44 108.24 0.57 107.73 0.71 107.29 0.71L107.29 0.71Q106.71 0.71 106.14 0.52 105.58 0.34 105.17-0.01 104.75-0.37 104.5-0.87 104.24-1.37 104.24-2.03ZM109.9-13.43L109.9-13.43Q110.39-13.4 110.92-13.38 111.44-13.35 111.91-13.33 112.37-13.31 112.74-13.29 113.1-13.28 113.3-13.28L113.3-13.28Q116.01-13.28 117.97-13.72 119.94-14.16 121.28-14.92 122.62-15.67 123.45-16.69 124.28-17.7 124.72-18.88 125.16-20.07 125.31-21.35 125.46-22.63 125.46-23.9L125.46-23.9Q125.46-25.93 124.88-27.4 124.31-28.88 123.38-29.88 122.45-30.88 121.27-31.49 120.09-32.1 118.85-32.43 117.62-32.76 116.45-32.87 115.28-32.98 114.4-32.98L114.4-32.98Q113.27-32.98 112.14-32.95 111-32.91 109.71-32.89L109.71-32.89Q109.76-29.69 109.78-27.26 109.81-24.83 109.82-22.96 109.83-21.09 109.84-19.7 109.86-18.31 109.87-17.21 109.88-16.11 109.89-15.21 109.9-14.31 109.9-13.43Z" opacity="1" transform="matrix(1,0,0,1,0,0)" fill="#ffffff" class="wordmark-text-0" data-fill-palette-color="primary" id="text-0"></path></svg></g></svg></g></svg></g></svg></g><g></g></svg></g><defs></defs></svg><rect width="395.52" height="121.3725043045724" fill="none" stroke="none" visibility="hidden"></rect></g></svg></g></svg>